<svg width="16" height="20" viewBox="0 0 16 20" fill="none" xmlns="http://www.w3.org/2000/svg">
<g id="account">
<g id="Group">
<path id="Vector" d="M12.7333 4.99994C12.7333 7.3941 10.6512 9.39994 7.99997 9.39994C5.34875 9.39994 3.26663 7.3941 3.26663 4.99994C3.26663 2.60578 5.34875 0.599939 7.99997 0.599939C10.6512 0.599939 12.7333 2.60578 12.7333 4.99994Z" stroke="black" stroke-width="1.2"/>
<g id="Vector_2">
<mask id="path-2-inside-1_1_350" fill="white">
<path d="M8.00002 11.6666C3.58376 11.6712 0.00491668 15.0264 0 19.1666C0 19.6269 0.397959 19.9999 0.888877 19.9999H15.1111C15.602 19.9999 16 19.6269 16 19.1666C15.9951 15.0264 12.4163 11.6712 8.00002 11.6666Z"/>
</mask>
<path d="M8.00002 11.6666L8.00126 10.4666L7.99877 10.4666L8.00002 11.6666ZM0 19.1666L-1.2 19.1652V19.1666H0ZM16 19.1666H17.2L17.2 19.1652L16 19.1666ZM7.99877 10.4666C2.9947 10.4718 -1.19421 14.2917 -1.2 19.1652L1.2 19.1681C1.20405 15.7611 4.17282 12.8706 8.00127 12.8666L7.99877 10.4666ZM-1.2 19.1666C-1.2 20.3614 -0.19065 21.1999 0.888877 21.1999V18.7999C0.94989 18.7999 1.02068 18.8238 1.08107 18.8804C1.1428 18.9383 1.2 19.0394 1.2 19.1666H-1.2ZM0.888877 21.1999H15.1111V18.7999H0.888877V21.1999ZM15.1111 21.1999C16.1906 21.1999 17.2 20.3614 17.2 19.1666H14.8C14.8 19.0394 14.8572 18.9383 14.9189 18.8804C14.9793 18.8238 15.0501 18.7999 15.1111 18.7999V21.1999ZM17.2 19.1652C17.1943 14.2917 13.0054 10.4718 8.00126 10.4666L7.99878 12.8666C11.8272 12.8706 14.796 15.761 14.8 19.168L17.2 19.1652Z" fill="black" mask="url(#path-2-inside-1_1_350)"/>
</g>
</g>
</g>
</svg>
