<svg width="20" height="20" viewBox="0 0 20 20" fill="none" xmlns="http://www.w3.org/2000/svg">
<path d="M10 11.5402C9.33696 11.5402 8.70107 11.8068 8.23223 12.2814C7.76339 12.756 7.5 13.3996 7.5 14.0708V19.9975H12.5V14.0708C12.5 13.3996 12.2366 12.756 11.7678 12.2814C11.2989 11.8068 10.663 11.5402 10 11.5402Z" fill="black"/>
<path d="M11.115 0.433139C10.809 0.154294 10.4118 0 10 0C9.58824 0 9.19105 0.154294 8.885 0.433139L0 8.52779V17.3007C0 18.0166 0.280952 18.7032 0.781049 19.2094C1.28115 19.7156 1.95942 20 2.66667 20H5.83333V14.0707C5.83333 12.9521 6.27232 11.8793 7.05372 11.0883C7.83512 10.2974 8.89493 9.853 10 9.853C11.1051 9.853 12.1649 10.2974 12.9463 11.0883C13.7277 11.8793 14.1667 12.9521 14.1667 14.0707V19.9975H17.3333C18.0406 19.9975 18.7189 19.7131 19.219 19.2069C19.719 18.7006 20 18.014 20 17.2981V8.52526L11.115 0.433139Z" fill="black"/>
</svg>
