<svg width="24" height="20" viewBox="0 0 24 20" fill="none" xmlns="http://www.w3.org/2000/svg">
<path id="Union" fill-rule="evenodd" clip-rule="evenodd" d="M2.47189 15.8869C3.2498 17.1459 4.26735 18.2349 5.46273 19.0942C5.60494 19.1964 5.8688 19.1795 6.01335 18.9249C6.13377 18.7128 6.08715 18.3614 5.7875 18.1325C4.79833 17.3769 3.95212 16.4447 3.29377 15.3791C2.39069 13.9174 1.87015 12.2519 1.78014 10.5361C1.69014 8.82036 2.03356 7.10954 2.77874 5.56141C3.32199 4.4328 4.06602 3.41714 4.97069 2.56216C5.24474 2.30316 5.25435 1.94888 5.1124 1.75053C4.942 1.51243 4.67782 1.52321 4.54708 1.63975C3.44817 2.6194 2.55014 3.80885 1.90825 5.1424C1.09271 6.83667 0.716875 8.709 0.815382 10.5868C0.913887 12.4645 1.48357 14.2872 2.47189 15.8869ZM6.70906 19.3198C6.35922 19.9361 5.57115 20.1574 4.99578 19.7438C3.71502 18.8231 2.62478 17.6564 1.79131 16.3074C0.732392 14.5935 0.122021 12.6405 0.0164798 10.6287C-0.0890614 8.61679 0.313624 6.61072 1.1874 4.79543C1.87515 3.36662 2.83733 2.09221 4.01473 1.04259C4.54367 0.571056 5.35057 0.708705 5.76296 1.28495C6.17536 1.86119 6.03519 2.65687 5.52019 3.14358C4.68622 3.93174 4.00036 4.868 3.49958 5.90838C2.81265 7.33549 2.49607 8.91258 2.57905 10.4942C2.66202 12.0759 3.14187 13.6112 3.97435 14.9586C4.58124 15.9409 5.3613 16.8002 6.27315 17.4968C6.83625 17.927 7.0589 18.7036 6.70906 19.3198ZM18.5373 19.0942C19.7327 18.2349 20.7502 17.1459 21.5281 15.8869C22.5164 14.2872 23.0861 12.4645 23.1846 10.5868C23.2831 8.709 22.9073 6.83667 22.0918 5.1424C21.4499 3.80885 20.5518 2.6194 19.4529 1.63975C19.3222 1.52321 19.058 1.51243 18.8876 1.75053C18.7457 1.94888 18.7553 2.30316 19.0293 2.56216C19.934 3.41714 20.678 4.4328 21.2213 5.56141C21.9664 7.10954 22.3099 8.82036 22.2199 10.5361C22.1299 12.2519 21.6093 13.9174 20.7062 15.3791C20.0479 16.4447 19.2017 17.3769 18.2125 18.1325C17.9129 18.3614 17.8662 18.7128 17.9867 18.9249C18.1312 19.1795 18.3951 19.1964 18.5373 19.0942ZM19.0042 19.7438C18.4289 20.1574 17.6408 19.9361 17.2909 19.3198C16.9411 18.7036 17.1638 17.927 17.7269 17.4968C18.6387 16.8002 19.4188 15.9409 20.0257 14.9586C20.8581 13.6112 21.338 12.0759 21.421 10.4942C21.5039 8.91258 21.1874 7.33549 20.5004 5.90838C19.9996 4.868 19.3138 3.93174 18.4798 3.14358C17.9648 2.65687 17.8246 1.86119 18.237 1.28495C18.6494 0.708705 19.4563 0.571056 19.9853 1.04259C21.1627 2.09221 22.1249 3.36662 22.8126 4.79543C23.6864 6.61072 24.0891 8.61679 23.9835 10.6287C23.878 12.6405 23.2676 14.5935 22.2087 16.3074C21.3752 17.6564 20.285 18.8231 19.0042 19.7438ZM6.76006 13.1849C7.10975 13.818 7.56591 14.3821 8.1057 14.8542C8.1801 14.9192 8.2652 14.9392 8.36709 14.9151C8.4794 14.8885 8.60471 14.8057 8.68607 14.6644C8.8253 14.4225 8.78593 13.969 8.40627 13.5411C8.16006 13.2635 7.94406 12.9585 7.76306 12.6309C7.3174 11.8241 7.10083 10.9108 7.13678 9.98988C7.17273 9.06891 7.45982 8.17531 7.96701 7.40574C8.173 7.09319 8.41211 6.80593 8.67921 6.54843C9.09107 6.15136 9.16567 5.7023 9.04571 5.45036C8.97562 5.30315 8.85714 5.21081 8.74725 5.17555C8.64754 5.14356 8.56115 5.15684 8.4819 5.21591C7.90696 5.64444 7.40822 6.17133 7.01025 6.77518C6.38807 7.71922 6.03588 8.81542 5.99178 9.94518C5.94769 11.0749 6.21336 12.1953 6.76006 13.1849ZM9.37936 15.0635C9.00103 15.7207 8.14985 15.9555 7.57907 15.4564C6.96964 14.9234 6.45462 14.2865 6.0598 13.5718C5.44256 12.4544 5.14261 11.1895 5.19239 9.91398C5.24218 8.63844 5.63981 7.4008 6.34227 6.33494C6.7916 5.65317 7.3547 5.05829 8.00382 4.57448C8.61177 4.12134 9.44205 4.42183 9.76802 5.10644C10.094 5.79105 9.78033 6.5981 9.23445 7.12437C9.00963 7.34111 8.80837 7.5829 8.63499 7.84598C8.20808 8.49373 7.96643 9.24589 7.93617 10.0211C7.90591 10.7963 8.0882 11.565 8.46332 12.244C8.61567 12.5198 8.79747 12.7766 9.00471 13.0102C9.50791 13.5774 9.7577 14.4064 9.37936 15.0635ZM16.2683 14.8542C16.8081 14.3821 17.2643 13.818 17.614 13.1849C18.1607 12.1953 18.4263 11.0749 18.3822 9.94518C18.3381 8.81542 17.986 7.71922 17.3638 6.77518C16.9658 6.17133 16.4671 5.64444 15.8921 5.21591C15.8129 5.15684 15.7265 5.14356 15.6268 5.17555C15.5169 5.21081 15.3984 5.30315 15.3283 5.45036C15.2084 5.7023 15.283 6.15136 15.6948 6.54843C15.9619 6.80593 16.201 7.09319 16.407 7.40574C16.9142 8.17531 17.2013 9.06891 17.2372 9.98988C17.2732 10.9108 17.0566 11.8241 16.611 12.6309C16.43 12.9585 16.214 13.2635 15.9678 13.5411C15.5881 13.969 15.5487 14.4225 15.688 14.6644C15.7693 14.8057 15.8946 14.8885 16.0069 14.9151C16.1088 14.9392 16.1939 14.9192 16.2683 14.8542ZM16.795 15.4564C16.2242 15.9555 15.373 15.7207 14.9947 15.0635C14.6163 14.4064 14.8661 13.5774 15.3693 13.0102C15.5766 12.7766 15.7584 12.5198 15.9107 12.244C16.2858 11.565 16.4681 10.7963 16.4379 10.0211C16.4076 9.24589 16.1659 8.49373 15.739 7.84598C15.5657 7.5829 15.3644 7.34111 15.1396 7.12437C14.5937 6.5981 14.28 5.79105 14.606 5.10644C14.932 4.42183 15.7623 4.12134 16.3702 4.57448C17.0193 5.05829 17.5824 5.65317 18.0318 6.33494C18.7342 7.4008 19.1318 8.63844 19.1816 9.91398C19.2314 11.1895 18.9315 12.4544 18.3142 13.5718C17.9194 14.2865 17.4044 14.9234 16.795 15.4564ZM11.6117 11.8177L13.3217 10.6659C13.4394 10.5866 13.4394 10.4134 13.3217 10.3341L11.6117 9.18232C11.4789 9.09284 11.3 9.18803 11.3 9.3482V11.6518C11.3 11.812 11.4789 11.9072 11.6117 11.8177ZM13.7687 11.3294C14.3571 10.933 14.3571 10.067 13.7687 9.67062L12.0587 8.5188C11.3944 8.0714 10.5 8.54734 10.5 9.3482V11.6518C10.5 12.4527 11.3944 12.9286 12.0587 12.4812L13.7687 11.3294Z" fill="black"/>
</svg>
